<?xml version="1.0" encoding="UTF-8"?>
<svg xmlns="http://www.w3.org/2000/svg" viewBox="0 0 24 24"><g fill="#3D3935" fill-rule="evenodd" clip-rule="evenodd"><path d="M20 7.25h-1.25V5A1.739 1.739 0 0 0 17 3.25H4A1.739 1.739 0 0 0 2.25 5v12c0 .46.18.91.51 1.24.33.32.78.51 1.24.51h8.25V19c0 .96.78 1.75 1.75 1.75h6c.97 0 1.75-.79 1.75-1.75V9c0-.97-.78-1.75-1.75-1.75zM12.25 9v8.25H4a.25.25 0 0 1-.18-.08.26.26 0 0 1-.07-.17V5c0-.07.03-.13.07-.18.05-.05.11-.07.18-.07h13c.07 0 .13.02.18.07.04.05.07.11.07.18v2.25H14c-.97 0-1.75.78-1.75 1.75zm8 10c0 .14-.11.25-.25.25h-6c-.14 0-.25-.11-.25-.25V9c0-.14.11-.25.25-.25h1.29a.755.755 0 0 0 .71 1h2a.755.755 0 0 0 .71-1H20c.14 0 .25.11.25.25v10z" style="fill: #ffffff;"/><path d="M17 16.972c-.414 0-.75.33-.75.75v.01c0 .41.336.75.75.75s.75-.34.75-.75v-.01c0-.42-.336-.75-.75-.75z" style="fill: #ffffff;"/></g></svg>
