<?xml version="1.0" encoding="UTF-8"?>
<svg xmlns="http://www.w3.org/2000/svg" fill="none" viewBox="0 0 24 24"><path fill="#3D3935" fill-rule="evenodd" d="M7 5.75a.25.25 0 0 0-.25.25v3.25h4.694c.645 0 1.306.487 1.306 1.25v3.75h3.17v-3.5c0-.743.554-1.5 1.417-1.5h1.913V6a.25.25 0 0 0-.25-.25H7zm5.75 10h3.17v2.5c0 .743.554 1.5 1.417 1.5h4c.863 0 1.416-.757 1.416-1.5v-7.5c0-.743-.553-1.5-1.416-1.5h-.587V6A1.75 1.75 0 0 0 19 4.25H7A1.75 1.75 0 0 0 5.25 6v3.25H2.556c-.645 0-1.306.487-1.306 1.25v6c0 .763.66 1.25 1.306 1.25h8.888c.645 0 1.306-.487 1.306-1.25v-.75zm8.503 2.5H17.42v-7.5h.596a.656.656 0 0 0 .654.706H20a.656.656 0 0 0 .654-.706h.6v7.5zM19.84 16.5a.5.5 0 1 1-1 0 .5.5 0 0 1 1 0zM2.75 10.75h8.5v5.5h-8.5v-5.5zm2 3.75a.75.75 0 1 0 0-1.5.75.75 0 0 0 0 1.5z" clip-rule="evenodd" style="fill: #ffffff;"/></svg>
