<?xml version="1.0" encoding="UTF-8"?>
<svg xmlns="http://www.w3.org/2000/svg" fill="none" viewBox="0 0 24 25"><path fill="#3D3935" fill-rule="evenodd" d="M11.47 3.468a.75.75 0 0 1 1.06 0l9 9a.75.75 0 0 1-.53 1.28h-1.25v6.25a2.75 2.75 0 0 1-2.75 2.75H7a2.75 2.75 0 0 1-2.75-2.75v-6.25H3a.75.75 0 0 1-.53-1.28l9-9zm-1.72 17.78h4.5v-5.25a1.25 1.25 0 0 0-1.25-1.25h-2a1.25 1.25 0 0 0-1.25 1.25v5.25zm6 0v-5.25a2.75 2.75 0 0 0-2.75-2.75h-2a2.75 2.75 0 0 0-2.75 2.75v5.25H7a1.25 1.25 0 0 1-1.25-1.25v-7a.75.75 0 0 0-.75-.75h-.19L12 5.058l7.19 7.19H19a.75.75 0 0 0-.75.75v7a1.25 1.25 0 0 1-1.25 1.25h-1.25z" clip-rule="evenodd" style="fill: #ffffff;"/></svg>
