<?xml version="1.0" encoding="UTF-8"?>
<svg xmlns="http://www.w3.org/2000/svg" fill="none" viewBox="0 0 24 25"><path fill="#3D3935" fill-rule="evenodd" d="M3.055 5.053A2.75 2.75 0 0 1 5 4.248h7a2.75 2.75 0 0 1 2.75 2.75v2a.75.75 0 0 1-1.5 0v-2A1.25 1.25 0 0 0 12 5.748H5a1.25 1.25 0 0 0-1.25 1.25v12A1.25 1.25 0 0 0 5 20.248h7a1.25 1.25 0 0 0 1.25-1.25v-2a.75.75 0 0 1 1.5 0v2a2.75 2.75 0 0 1-2.75 2.75H5a2.75 2.75 0 0 1-2.75-2.75v-12c0-.73.29-1.429.805-1.945zM17.47 9.468a.75.75 0 0 1 1.06 0l3 3a.75.75 0 0 1 0 1.06l-3 3a.75.75 0 1 1-1.06-1.06l1.72-1.72H7a.75.75 0 1 1 0-1.5h12.19l-1.72-1.72a.75.75 0 0 1 0-1.06z" clip-rule="evenodd" style="fill: white;"/></svg>
